<svg xmlns="http://www.w3.org/2000/svg" viewBox="0 0 100 100">
  <defs>
    <linearGradient id="leafGradient" x1="0%" y1="0%" x2="100%" y2="100%">
      <stop offset="0%" style="stop-color:#10b981;stop-opacity:1" />
      <stop offset="100%" style="stop-color:#064e3b;stop-opacity:1" />
    </linearGradient>
  </defs>
  <rect width="100" height="100" rx="20" fill="url(#leafGradient)"/>
  <path d="M50 20 C35 20, 25 30, 25 45 C25 55, 30 60, 40 65 C35 70, 30 75, 30 80 C30 85, 35 90, 40 90 C45 90, 50 85, 50 80 C50 85, 55 90, 60 90 C65 90, 70 85, 70 80 C70 75, 65 70, 60 65 C70 60, 75 55, 75 45 C75 30, 65 20, 50 20 Z" fill="white" opacity="0.95"/>
  <circle cx="50" cy="50" r="8" fill="white" opacity="0.8"/>
</svg>

